<svg xmlns="http://www.w3.org/2000/svg" viewBox="0 0 128 128">
  <rect width="128" height="128" rx="28" fill="#fff7df"/>
  <path d="M64 8 70 25 88 25 73 36 79 54 64 43 49 54 55 36 40 25 58 25Z" fill="#ffffff" stroke="#111827" stroke-width="5" stroke-linejoin="round"/>
  <circle cx="38" cy="48" r="18" fill="#fffbe6" stroke="#111827" stroke-width="6"/>
  <path d="M20 48c3-16 13-24 28-22 9 1 15 7 17 18-10-2-19-1-27 7-5-4-11-5-18-3Z" fill="#ff9f2e" stroke="#111827" stroke-width="6" stroke-linejoin="round"/>
  <circle cx="90" cy="48" r="18" fill="#fffbe6" stroke="#111827" stroke-width="6"/>
  <path d="M72 48c4-15 15-23 30-20 9 2 14 8 15 19-8-3-17-2-26 5-6-4-12-5-19-4Z" fill="#f7eec2" stroke="#111827" stroke-width="6" stroke-linejoin="round"/>
  <circle cx="64" cy="68" r="16" fill="#fffbe6" stroke="#111827" stroke-width="6"/>
  <path d="M14 112V83c0-18 15-32 33-32h8c15 0 27 10 31 24-10 6-17 17-17 31v6Z" fill="#ff9f2e" stroke="#111827" stroke-width="6" stroke-linejoin="round"/>
  <path d="M59 112v-6c0-18 14-32 32-32h9c18 0 32 14 32 32v6Z" transform="translate(-18 0)" fill="#72c05b" stroke="#111827" stroke-width="6" stroke-linejoin="round"/>
  <path d="M42 112V96c0-17 10-30 22-30s22 13 22 30v16Z" fill="#80d0f5" stroke="#111827" stroke-width="6" stroke-linejoin="round"/>
</svg>
